<svg xmlns="http://www.w3.org/2000/svg" width="50.25" height="50.5" viewBox="0 0 50.25 50.5">
  <g id="analysis_1_" data-name="analysis (1)" transform="translate(0.25 -6.308)">
    <path id="Path_8493" data-name="Path 8493" d="M117.726,88.072a2.506,2.506,0,1,0-2.441-2.506,2.535,2.535,0,0,0,.491,1.5l-4.011,5.753a2.385,2.385,0,0,0-2.422.547l-2.674-1.557a2.565,2.565,0,0,0,.055-.527,2.442,2.442,0,1,0-4.883,0,2.565,2.565,0,0,0,.055.527l-2.674,1.557a2.4,2.4,0,0,0-1.662-.672A2.507,2.507,0,1,0,100,95.205a2.565,2.565,0,0,0-.055-.527l2.674-1.557a2.39,2.39,0,0,0,3.324,0l2.674,1.557a2.565,2.565,0,0,0-.055.527,2.442,2.442,0,1,0,4.883,0,2.536,2.536,0,0,0-.491-1.5l4.011-5.753A2.377,2.377,0,0,0,117.726,88.072Zm0-3.508a1,1,0,1,1-.977,1A.991.991,0,0,1,117.726,84.564ZM97.559,96.207a1,1,0,1,1,.977-1A.991.991,0,0,1,97.559,96.207Zm6.722-3.917a1,1,0,1,1,.977-1A.991.991,0,0,1,104.281,92.29ZM111,96.207a1,1,0,1,1,.977-1A.991.991,0,0,1,111,96.207Z" transform="translate(-85.829 -68.836)" fill="#041b52"/>
    <path id="Path_8494" data-name="Path 8494" d="M40.9,73.876H2.072a.616.616,0,0,1-.607-.623V42.242a.616.616,0,0,1,.607-.623H5.525a.752.752,0,0,0,0-1.5H2.072A2.1,2.1,0,0,0,0,42.242V73.253A2.1,2.1,0,0,0,2.072,75.38h5.05v1.654a1.69,1.69,0,0,0,1.665,1.709h7.331l-3.451,6.915a.761.761,0,0,0,.318,1.012.713.713,0,0,0,.333.083.73.73,0,0,0,.652-.409l3.793-7.6h8.1l3.793,7.6a.73.73,0,0,0,.652.409.716.716,0,0,0,.333-.083.761.761,0,0,0,.318-1.012l-3.451-6.915H34.84A1.69,1.69,0,0,0,36.5,77.034V75.38H40.9a.752.752,0,0,0,0-1.5ZM35.04,77.034a.2.2,0,0,1-.2.206H8.787a.2.2,0,0,1-.2-.206V75.38H35.04Z" transform="translate(0 -30.195)" fill="#fe354d" stroke="#fe354d" stroke-width="0.5"/>
    <path id="Path_8495" data-name="Path 8495" d="M79.8,11.425h33.1a.616.616,0,0,1,.607.623v7.147a.733.733,0,1,0,1.465,0V12.048A2.1,2.1,0,0,0,112.9,9.921H97.228V8.444A1.864,1.864,0,0,0,95.39,6.558H90.935A1.864,1.864,0,0,0,89.1,8.444V9.921H79.8a.752.752,0,0,0,0,1.5ZM90.562,8.444a.378.378,0,0,1,.373-.382H95.39a.378.378,0,0,1,.373.382V9.921h-5.2V8.444Z" transform="translate(-71.349)" fill="#fe354d" stroke="#fe354d" stroke-width="0.5"/>
    <path id="Path_8496" data-name="Path 8496" d="M98.134,267.576a.742.742,0,0,0-.732.752v6.642a.742.742,0,0,0,.732.752h2.971a.742.742,0,0,0,.732-.752v-6.642a.742.742,0,0,0-.732-.752Zm2.239,6.642H98.867v-5.139h1.507Z" transform="translate(-87.89 -234.858)" fill="#041b52"/>
    <path id="Path_8497" data-name="Path 8497" d="M166.969,229.248a.742.742,0,0,0-.732.752v10.483a.742.742,0,0,0,.732.752h2.971a.742.742,0,0,0,.732-.752V230a.742.742,0,0,0-.732-.752Zm2.239,10.483H167.7v-8.98h1.507Z" transform="translate(-150.003 -200.371)" fill="#041b52"/>
    <path id="Path_8498" data-name="Path 8498" d="M235.805,267.576a.742.742,0,0,0-.732.752v6.642a.742.742,0,0,0,.732.752h2.971a.742.742,0,0,0,.732-.752v-6.642a.742.742,0,0,0-.732-.752Zm2.239,6.642h-1.507v-5.139h1.507Z" transform="translate(-212.117 -234.858)" fill="#041b52"/>
    <path id="Path_8499" data-name="Path 8499" d="M304.641,311.832a.742.742,0,0,0-.732.752v2.207a.742.742,0,0,0,.732.752h2.971a.752.752,0,0,0,0-1.5h-2.239v-1.455A.742.742,0,0,0,304.641,311.832Z" transform="translate(-274.23 -274.678)" fill="#041b52"/>
    <path id="Path_8500" data-name="Path 8500" d="M316.3,168.482l-4.2-7.469a9.85,9.85,0,0,0,2.254-4.173,9.985,9.985,0,0,0-.956-7.455,9.451,9.451,0,0,0-13.077-3.6,9.978,9.978,0,0,0-3.5,13.421,9.548,9.548,0,0,0,5.813,4.578,9.394,9.394,0,0,0,2.493.339,9.222,9.222,0,0,0,2.156-.256l4.2,7.469a2.772,2.772,0,0,0,2.416,1.428,2.715,2.715,0,0,0,1.388-.382,2.881,2.881,0,0,0,1.393-2.476A2.918,2.918,0,0,0,316.3,168.482Zm-13.293-6.148a8.087,8.087,0,0,1-4.923-3.877,8.451,8.451,0,0,1,2.968-11.367,7.9,7.9,0,0,1,4.04-1.113,8.076,8.076,0,0,1,7.035,4.159,8.457,8.457,0,0,1,.81,6.314,8.242,8.242,0,0,1-3.778,5.053A7.875,7.875,0,0,1,303.005,162.335Zm11.542,8.749a1.3,1.3,0,0,1-1.8-.5L308.7,163.4a9.557,9.557,0,0,0,2.284-1.355l4.043,7.187a1.383,1.383,0,0,1,.177.676A1.366,1.366,0,0,1,314.547,171.083Z" transform="translate(-266.672 -124.094)" fill="#041b52"/>
    <path id="Path_8501" data-name="Path 8501" d="M335.9,180.5a7.285,7.285,0,0,0-.347-5.153.724.724,0,0,0-.975-.36.76.76,0,0,0-.35,1,5.749,5.749,0,0,1,.273,4.067,5.591,5.591,0,0,1-2.5,3.207,5.331,5.331,0,0,1-4.165.563A5.474,5.474,0,0,1,324.5,181.2a5.721,5.721,0,0,1,2.009-7.7,5.366,5.366,0,0,1,6.06.387.72.72,0,0,0,1.026-.146.765.765,0,0,0-.142-1.053,6.8,6.8,0,0,0-7.676-.49,7.069,7.069,0,0,0-3.24,4.333,7.253,7.253,0,0,0,.695,5.415,6.935,6.935,0,0,0,4.222,3.325,6.754,6.754,0,0,0,5.277-.713A7.083,7.083,0,0,0,335.9,180.5Z" transform="translate(-290.825 -148.178)" fill="#041b52"/>
  </g>
</svg>
