<svg id="analytics" xmlns="http://www.w3.org/2000/svg" width="50" height="50" viewBox="0 0 50 50">
  <g id="Group_1141" data-name="Group 1141">
    <g id="Group_1140" data-name="Group 1140">
      <path id="Path_8427" data-name="Path 8427" d="M46.59,43.018A3.414,3.414,0,0,0,50,39.608V4.883A4.888,4.888,0,0,0,45.117,0H4.883A4.888,4.888,0,0,0,0,4.883V39.608a3.414,3.414,0,0,0,3.41,3.41H4.492v5.029H.977A.977.977,0,0,0,.977,50H49.023a.977.977,0,0,0,0-1.953H45.508V43.018ZM1.953,4.883a2.933,2.933,0,0,1,2.93-2.93H45.117a2.933,2.933,0,0,1,2.93,2.93V7.031h-46c-.033,0-.066,0-.1,0Zm8.789,43.164h-4.3V39.258h4.3Zm10.938,0h-4.3V28.46h4.3Zm10.938,0h-4.3V36.719h4.3Zm11.914-23h-6.25a.977.977,0,0,0-.977.977v4.932a.977.977,0,1,0,1.953,0V27h4.3V48.047h-4.3V37.524a.977.977,0,0,0-1.953,0V48.047H34.57v-12.3a.977.977,0,0,0-.977-.977h-6.25a.977.977,0,0,0-.977.977v12.3H23.633V27.484a.977.977,0,0,0-.977-.977h-6.25a.977.977,0,0,0-.977.977V48.047H12.7V38.281a.977.977,0,0,0-.977-.977H5.469a.977.977,0,0,0-.977.977v2.783H3.41a1.458,1.458,0,0,1-1.457-1.457V8.979c.032,0,.065,0,.1,0h46V39.608a1.458,1.458,0,0,1-1.457,1.457H45.508V26.025A.977.977,0,0,0,44.531,25.049Z" fill="#fe354d"/>
    </g>
  </g>
  <g id="Group_1143" data-name="Group 1143" transform="translate(20.709 3.516)">
    <g id="Group_1142" data-name="Group 1142">
      <path id="Path_8428" data-name="Path 8428" d="M235.106,36H213.042a.977.977,0,0,0,0,1.953h22.064a.977.977,0,0,0,0-1.953Z" transform="translate(-212.065 -36)" fill="#041b52"/>
    </g>
  </g>
  <g id="Group_1145" data-name="Group 1145" transform="translate(9.18 3.516)">
    <g id="Group_1144" data-name="Group 1144">
      <path id="Path_8429" data-name="Path 8429" d="M95.667,36.286a.976.976,0,1,0,.286.69A.984.984,0,0,0,95.667,36.286Z" transform="translate(-94 -36)" fill="#041b52"/>
    </g>
  </g>
  <g id="Group_1147" data-name="Group 1147" transform="translate(5.273 3.516)">
    <g id="Group_1146" data-name="Group 1146">
      <path id="Path_8430" data-name="Path 8430" d="M55.667,36.286a.976.976,0,1,0,.286.69A.984.984,0,0,0,55.667,36.286Z" transform="translate(-54 -36)" fill="#041b52"/>
    </g>
  </g>
  <g id="Group_1149" data-name="Group 1149" transform="translate(13.086 3.516)">
    <g id="Group_1148" data-name="Group 1148">
      <path id="Path_8431" data-name="Path 8431" d="M135.667,36.286a.976.976,0,1,0,.286.69A.982.982,0,0,0,135.667,36.286Z" transform="translate(-134 -36)" fill="#041b52"/>
    </g>
  </g>
  <g id="Group_1151" data-name="Group 1151" transform="translate(37.305 33.461)">
    <g id="Group_1150" data-name="Group 1150">
      <path id="Path_8432" data-name="Path 8432" d="M383.667,342.926a.976.976,0,1,0,.286.69A.98.98,0,0,0,383.667,342.926Z" transform="translate(-382 -342.64)" fill="#041b52"/>
    </g>
  </g>
  <g id="Group_1153" data-name="Group 1153" transform="translate(5.013 13.275)">
    <g id="Group_1152" data-name="Group 1152">
      <path id="Path_8433" data-name="Path 8433" d="M87.729,135.939a3.513,3.513,0,0,0-2.845,5.578L78.4,148a3.507,3.507,0,0,0-3.242-.079l-6.773-6.773a3.516,3.516,0,1,0-6.067.151l-5.767,5.767a3.518,3.518,0,1,0,1.381,1.381l5.836-5.836A3.508,3.508,0,0,0,67,142.532l6.707,6.707a3.516,3.516,0,1,0,6.071.145l6.661-6.661a3.515,3.515,0,1,0,1.29-6.785ZM54.852,151.71a1.563,1.563,0,1,1,1.563-1.562A1.564,1.564,0,0,1,54.852,151.71ZM65.3,141.017a1.563,1.563,0,1,1,1.563-1.562A1.564,1.564,0,0,1,65.3,141.017Zm11.4,11.627a1.563,1.563,0,1,1,1.563-1.562A1.564,1.564,0,0,1,76.7,152.644Zm11.028-11.627a1.563,1.563,0,1,1,1.563-1.562A1.564,1.564,0,0,1,87.729,141.017Z" transform="translate(-51.336 -135.939)" fill="#041b52"/>
    </g>
  </g>
  <g id="Group_1155" data-name="Group 1155" transform="translate(12.818 12.307)">
    <g id="Group_1154" data-name="Group 1154">
      <path id="Path_8434" data-name="Path 8434" d="M132.927,126.306a.976.976,0,1,0,.286.69A.986.986,0,0,0,132.927,126.306Z" transform="translate(-131.26 -126.02)" fill="#041b52"/>
    </g>
  </g>
  <g id="Group_1157" data-name="Group 1157" transform="translate(4.492 12.307)">
    <g id="Group_1156" data-name="Group 1156">
      <path id="Path_8435" data-name="Path 8435" d="M51.664,126.021H46.977a.977.977,0,0,0,0,1.953h4.688a.977.977,0,0,0,0-1.953Z" transform="translate(-46 -126.021)" fill="#041b52"/>
    </g>
  </g>
  <g id="Group_1159" data-name="Group 1159" transform="translate(4.492 16.994)">
    <g id="Group_1158" data-name="Group 1158">
      <path id="Path_8436" data-name="Path 8436" d="M51.664,174.021H46.977a.977.977,0,0,0,0,1.953h4.688a.977.977,0,0,0,0-1.953Z" transform="translate(-46 -174.021)" fill="#041b52"/>
    </g>
  </g>
</svg>
