<svg xmlns="http://www.w3.org/2000/svg" width="40.52" height="50.517" viewBox="0 0 40.52 50.517">
  <g id="idea" transform="translate(-12.583 -1.732)">
    <path id="Path_8502" data-name="Path 8502" d="M19.617,10.514a.842.842,0,0,1-.754-.422A.64.64,0,0,1,19,9.325a18.186,18.186,0,0,1,1.841-1.554.92.92,0,0,1,1.166.079.649.649,0,0,1-.091,1.007,16.7,16.7,0,0,0-1.682,1.419.89.89,0,0,1-.617.239Z" transform="translate(-1.026 -1.601)" fill="#fe354d" stroke="#fe354d" stroke-width="0.5"/>
    <path id="Path_8503" data-name="Path 8503" d="M42.29,40.02H23.364a.777.777,0,0,1-.827-.714v-.721c0-3.509-.935-4.345-2.8-6.01a29.921,29.921,0,0,1-3.056-3.059,15.869,15.869,0,0,1-3.831-8.994l.827-.058h.827a14.542,14.542,0,0,0,3.513,8.206,28.322,28.322,0,0,0,2.913,2.913c1.964,1.756,3.261,2.916,3.261,7v.007H41.463V37.9c0-3.8,1.209-4.78,3.04-6.267A22.3,22.3,0,0,0,47.431,28.9,14.336,14.336,0,0,0,51.2,19.292,15.011,15.011,0,0,0,45.054,7.453,20.345,20.345,0,0,0,30.726,3.531,20.035,20.035,0,0,0,25.85,4.616a.879.879,0,0,1-1.082-.384.683.683,0,0,1,.445-.934,21.9,21.9,0,0,1,5.331-1.186A22.171,22.171,0,0,1,46.156,6.386a16.362,16.362,0,0,1,6.7,12.906,15.625,15.625,0,0,1-4.108,10.477,23.93,23.93,0,0,1-3.109,2.911c-1.725,1.4-2.52,2.046-2.52,5.226v1.4A.777.777,0,0,1,42.29,40.02Z" transform="translate(0)" fill="#fe354d" stroke="#fe354d" stroke-width="0.5"/>
    <path id="Path_8504" data-name="Path 8504" d="M14.627,19.048a.964.964,0,0,1-.241-.031.7.7,0,0,1-.551-.891,15.184,15.184,0,0,1,.95-2.143.886.886,0,0,1,1.1-.349.677.677,0,0,1,.4.948,13.771,13.771,0,0,0-.869,1.958.822.822,0,0,1-.792.508Z" transform="translate(-0.164 -3.877)" fill="#fe354d" stroke="#fe354d" stroke-width="0.5"/>
    <path id="Path_8505" data-name="Path 8505" d="M44.195,59.207H24.181a3.023,3.023,0,1,1,0-5.981H44.195a3.023,3.023,0,1,1,0,5.981ZM24.186,54.655a1.579,1.579,0,1,0,0,3.124H44.195a1.579,1.579,0,1,0,0-3.124Z" transform="translate(-1.359 -14.638)" fill="#fe354d" stroke="#fe354d" stroke-width="0.5"/>
    <path id="Path_8506" data-name="Path 8506" d="M35.215,68.457c-4.715,0-8.537-3.3-8.542-7.376v-.766A.777.777,0,0,1,27.5,59.6H42.93a.777.777,0,0,1,.827.714v.766c-.005,4.072-3.827,7.372-8.542,7.376Zm-6.888-7.428v.052c0,3.285,3.084,5.948,6.888,5.948S42.1,64.366,42.1,61.081v-.052Z" transform="translate(-2.388 -16.459)" fill="#fe354d" stroke="#fe354d" stroke-width="0.5"/>
    <path id="Path_8507" data-name="Path 8507" d="M35.7,32.857H32.767a1.144,1.144,0,0,1-1.185-.913l-.125-.961a12.27,12.27,0,0,1-3.082-1.1l-.874.6a1.33,1.33,0,0,1-1.586-.077l-2.077-1.794a.927.927,0,0,1-.089-1.369l.7-.754a9.016,9.016,0,0,1-1.276-2.661l-1.111-.108A1.1,1.1,0,0,1,21,22.7V20.16a1.1,1.1,0,0,1,1.06-1.024l1.11-.108a9.017,9.017,0,0,1,1.276-2.661l-.7-.754a.927.927,0,0,1,.09-1.37l2.076-1.793a1.33,1.33,0,0,1,1.587-.076l.873.6a12.27,12.27,0,0,1,3.082-1.1l.125-.959A1.144,1.144,0,0,1,32.767,10H35.7a1.144,1.144,0,0,1,1.185.913l.125.961a12.27,12.27,0,0,1,3.082,1.1l.873-.6a1.33,1.33,0,0,1,1.586.077l2.077,1.794a.927.927,0,0,1,.089,1.369l-.7.754A9.016,9.016,0,0,1,45.3,19.029l1.111.108A1.1,1.1,0,0,1,47.47,20.16V22.7a1.1,1.1,0,0,1-1.06,1.024l-1.11.108a9.016,9.016,0,0,1-1.276,2.661l.7.754a.927.927,0,0,1-.09,1.37l-2.076,1.793a1.331,1.331,0,0,1-1.587.076l-.873-.6a12.27,12.27,0,0,1-3.082,1.1l-.125.959a1.144,1.144,0,0,1-1.185.914Zm-2.524-1.429H35.29l.146-1.111A.766.766,0,0,1,36.1,29.7a10.547,10.547,0,0,0,3.587-1.281.934.934,0,0,1,.979.034l1.017.695,1.489-1.286-.806-.874a.638.638,0,0,1-.039-.845,7.764,7.764,0,0,0,1.484-3.1.791.791,0,0,1,.72-.571l1.289-.13V20.517l-1.287-.126a.791.791,0,0,1-.72-.571,7.764,7.764,0,0,0-1.484-3.1.638.638,0,0,1,.039-.845l.8-.878-1.489-1.286-1.012.7a.934.934,0,0,1-.979.034A10.547,10.547,0,0,0,36.1,13.163a.766.766,0,0,1-.662-.621l-.151-1.113H33.179l-.146,1.111a.766.766,0,0,1-.662.621,10.547,10.547,0,0,0-3.587,1.281.934.934,0,0,1-.979-.034l-1.017-.695L25.3,15l.806.874a.638.638,0,0,1,.039.845,7.764,7.764,0,0,0-1.484,3.1.791.791,0,0,1-.72.571l-1.289.13V22.34l1.287.126a.791.791,0,0,1,.72.571,7.764,7.764,0,0,0,1.484,3.1.638.638,0,0,1-.039.845l-.8.878,1.489,1.286,1.012-.7a.934.934,0,0,1,.979-.034,10.547,10.547,0,0,0,3.587,1.281.766.766,0,0,1,.662.621Z" transform="translate(-1.408 -2.286)" fill="#041b52"/>
    <path id="Path_8508" data-name="Path 8508" d="M35.445,29.857c-4.112,0-7.445-2.878-7.445-6.428S31.333,17,35.445,17s7.445,2.878,7.445,6.428S39.554,29.853,35.445,29.857Zm0-11.428c-3.2,0-5.79,2.239-5.79,5s2.592,5,5.79,5,5.79-2.239,5.79-5S38.641,18.432,35.445,18.429Z" transform="translate(-2.618 -4.286)" fill="#041b52"/>
  </g>
</svg>
