<svg xmlns="http://www.w3.org/2000/svg" width="35" height="40" viewBox="0 0 35 40">
  <g id="surface1" transform="translate(0 0.001)">
    <path id="Path_8411" data-name="Path 8411" d="M128.062,158.457a7.621,7.621,0,1,0,7.621,7.621A7.63,7.63,0,0,0,128.062,158.457Zm4.525,6.186-5.46,5.46a1.173,1.173,0,0,1-1.66,0l-2.086-2.086a1.173,1.173,0,1,1,1.66-1.66l1.257,1.257,4.63-4.63a1.173,1.173,0,0,1,1.66,1.66Zm0,0" transform="translate(-110.562 -146.079)" fill="#041b52"/>
    <path id="Path_8412" data-name="Path 8412" d="M34.959,10.852v-.031c-.018-.384-.03-.791-.037-1.243a4.293,4.293,0,0,0-4.1-4.153A17.136,17.136,0,0,1,19.315.706L19.288.681a2.684,2.684,0,0,0-3.575,0l-.027.025a17.137,17.137,0,0,1-11.5,4.72A4.293,4.293,0,0,0,.08,9.578c-.007.449-.019.856-.037,1.243l0,.072c-.092,4.69-.206,10.526,1.8,15.824a20.091,20.091,0,0,0,4.966,7.527,26.129,26.129,0,0,0,9.717,5.594,3.075,3.075,0,0,0,.4.106,3.021,3.021,0,0,0,1.156,0,3.085,3.085,0,0,0,.4-.106,26.145,26.145,0,0,0,9.707-5.6,20.119,20.119,0,0,0,4.966-7.529C35.165,21.4,35.051,15.551,34.959,10.852ZM17.5,29.968A10.12,10.12,0,0,1,7.257,20,10.12,10.12,0,0,1,17.5,10.031,10.12,10.12,0,0,1,27.743,20,10.12,10.12,0,0,1,17.5,29.968Zm0,0" transform="translate(0)" fill="#fe354d"/>
  </g>
</svg>
